<svg xmlns="http://www.w3.org/2000/svg" width="60" height="60" viewBox="0 0 60 60">
    <g fill="none" fill-rule="evenodd">
        <text fill="#4C6ECB" font-family="HelveticaLTStd-Bold, Helvetica LT Std" font-size="26" font-weight="bold">
            <tspan x="9.272" y="47">7</tspan>
        </text>
        <path fill="#EF6861" d="M26 28h5v5h-5zM35 28h5v5h-5zM44 28h5v5h-5zM44 36h5v5h-5zM35 36h5v5h-5zM26 36h5v5h-5zM26 44h5v5h-5z"/>
        <path fill="#242B2E" d="M15.208 2.011v3.896H8.125C4.037 5.907.666 9.27.666 13.365V21.2a7.091 7.091 0 0 0 0 .27v30.417c0 4.095 3.37 7.458 7.459 7.458h43.77c4.09 0 7.438-3.363 7.438-7.458V21.553c.003-.132.003-.18 0-.23v-7.958c0-4.095-3.35-7.458-7.438-7.458h-7.312V2.011a1.333 1.333 0 1 0-2.667 0v3.896H17.875V2.011A1.333 1.333 0 0 0 16.52.657c-.812.075-1.327.663-1.312 1.354zM8.333 8.803h43.333a5 5 0 0 1 5 5v38.083c0 2.644-2.142 4.792-4.77 4.792H8.124c-2.63 0-4.792-2.148-4.792-4.792V13.803a5 5 0 0 1 5-5z" opacity=".9"/>
        <path fill="#4C6ECB" d="M8.3 8.8h43.333a5 5 0 0 1 5 5v7.083H3.3V13.8a5 5 0 0 1 5-5z"/>
    </g>
</svg>
