<svg xmlns="http://www.w3.org/2000/svg" width="42" height="59" viewBox="0 0 42 59">
    <g fill="none" fill-rule="nonzero">
        <path fill="#EF6861" stroke="#EF6861" d="M39.464 1.135s2.032 8.11 1.168 10.537a4.597 4.597 0 0 1-3.31 2.967 4.432 4.432 0 0 1-2.546-.172 4.56 4.56 0 0 1-2.114-1.62 4.763 4.763 0 0 1-.617-4.374c.864-2.427 7.419-7.338 7.419-7.338z"/>
        <path fill="#FFF" d="M36.237 24.962c1.293 0 2.34 1.015 2.34 2.269 0 .626-.262 1.193-.686 1.604a2.37 2.37 0 0 1-1.654.665H3.475c-1.293 0-2.34-1.015-2.34-2.27 0-.626.262-1.193.685-1.604a2.37 2.37 0 0 1 1.655-.664h32.762z"/>
        <path fill="#FFF" d="M37.442 14.288v.001c-.137 2.619-.791 6.558-1.894 10.673h-9.452c2.232-5.233 4.561-9.878 6.535-12.481a4.696 4.696 0 0 0 2.183 1.633 4.68 4.68 0 0 0 2.628.174z"/>
        <path fill="#414D5E" d="M36.308 47.5v5.753c0 2.547-2.105 4.612-4.7 4.612H8.103c-2.595 0-4.7-2.065-4.7-4.612V47.5h32.904z"/>
        <path fill="#FFF" d="M24.962 19.988v4.974h-9.077V1.135h9.077V15.36z"/>
        <path fill="#4C6ECB" d="M11.493 16.691l2.122 8.27H4.371l-1.503-5.954-1.733-6.48a6.309 6.309 0 0 0 8.625-2.315l1.733 6.48z"/>
        <path fill="#FFF" d="M3.24 1.135l6.972 8.078c-1.835 3.125-5.9 4.196-9.077 2.391L3.24 1.134z"/>
        <path fill="#414D5E" d="M40.544.866c-.096-.37-.37-.67-.734-.799a1.171 1.171 0 0 0-1.079.155c-1.161.843-7.005 5.18-7.957 7.77a5.703 5.703 0 0 0 .323 4.654c-1.425 2.027-2.902 4.825-4.201 7.559V1.152c0-.636-.52-1.152-1.163-1.152h-9.3c-.642 0-1.163.516-1.163 1.152v22.586h-.208l-1.986-7.657c0-.004-.002-.008-.003-.011l-1.805-6.678a1.157 1.157 0 0 0-.038-.114l-.015-.034a1.112 1.112 0 0 0-.035-.077l-.02-.035a1.117 1.117 0 0 0-.115-.17l-.014-.018L4.132.887a1.169 1.169 0 0 0-1.178-.37 1.157 1.157 0 0 0-.849.892L.021 11.852l-.003.023c-.006.03-.01.06-.013.09l-.003.039A1.183 1.183 0 0 0 0 12.09l.001.04c.001.03.004.058.008.088l.004.035c.007.04.015.081.026.12l1.803 6.672 1.21 4.744c-.706.119-1.356.45-1.873.962a3.42 3.42 0 0 0-1.022 2.444c0 1.502.972 2.783 2.325 3.259v22.784C2.482 56.415 5.09 59 8.295 59h23.251c3.205 0 5.813-2.585 5.813-5.762V30.456c.485-.17.929-.445 1.303-.816a3.419 3.419 0 0 0 1.022-2.445c0-1.683-1.221-3.09-2.831-3.394.758-3.055 1.292-6.09 1.49-8.471a5.754 5.754 0 0 0 3.357-3.397c.953-2.596-.796-9.674-1.156-11.067zM27.826 23.738c1.775-3.987 3.415-7.134 4.818-9.247a5.86 5.86 0 0 0 3.329 1.228c-.234 2.297-.768 5.158-1.502 8.02h-6.645zM17.596 2.305h6.975v2.65h-2.325c-.642 0-1.163.516-1.163 1.152 0 .637.52 1.153 1.163 1.153h2.325v4.914h-2.325c-.642 0-1.163.516-1.163 1.152 0 .637.52 1.153 1.163 1.153h2.325v4.304h-2.325c-.642 0-1.163.516-1.163 1.153 0 .636.52 1.152 1.163 1.152h2.325v2.65h-6.976V2.305zM5.435 23.738l-1.342-5.266a.35.35 0 0 0-.004-.016l-1.22-4.513c.515.107 1.04.161 1.567.161a7.85 7.85 0 0 0 2.015-.264 7.724 7.724 0 0 0 3.155-1.688l1.219 4.509 1.835 7.077H5.437zM3.92 4.2l4.77 5.57a5.377 5.377 0 0 1-2.839 1.844 5.417 5.417 0 0 1-3.374-.186L3.919 4.2zm27.627 52.495H8.295c-1.923 0-3.488-1.55-3.488-3.457V30.652h30.227v22.586c0 1.906-1.565 3.457-3.488 3.457zm5.813-29.5a1.16 1.16 0 0 1-1.163 1.152H3.645a1.159 1.159 0 0 1-1.163-1.152 1.16 1.16 0 0 1 1.163-1.152h32.552c.64 0 1.162.517 1.162 1.152zm2.156-16.05a3.466 3.466 0 0 1-2.531 2.193 3.49 3.49 0 0 1-1.94-.127 3.468 3.468 0 0 1-1.613-1.196 3.428 3.428 0 0 1-.472-3.235c.436-1.186 3.272-3.715 5.74-5.638.679 3.058 1.25 6.818.816 8.002z"/>
    </g>
</svg>
