<svg xmlns="http://www.w3.org/2000/svg" width="78" height="53" viewBox="0 0 78 53">
    <g fill="none" fill-rule="evenodd">
        <g>
            <g fill="#414D5E" fill-rule="nonzero" stroke="#FFF" stroke-width=".5">
                <path d="M63.99 5.617H12.92c-.59 0-1.068.478-1.068 1.068V35.05c0 .59.478 1.068 1.068 1.068h51.07c.589 0 1.067-.478 1.067-1.068V6.685c0-.59-.478-1.068-1.068-1.068zM62.92 33.982H13.988V7.753h48.933v26.229z"/>
                <path d="M76.163 39.47a1.068 1.068 0 0 0-.887-.473h-5.202V4.692A4.095 4.095 0 0 0 65.982.601H10.927a4.096 4.096 0 0 0-4.091 4.091v34.306H1.633a1.068 1.068 0 0 0-.989 1.473l1.459 2.707A5.175 5.175 0 0 0 6.908 46.4h63.093a5.17 5.17 0 0 0 4.803-3.222l1.46-2.706a1.07 1.07 0 0 0-.1-1.001zM8.972 4.693c0-1.078.877-1.955 1.955-1.955h55.055c1.078 0 1.955.877 1.955 1.955v34.306H8.972V4.692z"/>
            </g>
            <rect width="6.836" height="6.836" x="20.509" y="23.073" fill="#4C6ECB" rx="1"/>
            <rect width="6.836" height="6.836" x="34.182" y="23.073" fill="#4C6ECB" rx="1"/>
            <rect width="6.836" height="6.836" x="47.855" y="23.073" fill="#4C6ECB" rx="1"/>
            <rect width="21.364" height="1.709" x="33.327" y="12.818" fill="#EF6861" rx=".855"/>
            <rect width="21.364" height="1.709" x="33.327" y="17.091" fill="#EF6861" rx=".855"/>
            <rect width="6.836" height="6.836" x="20.509" y="11.964" fill="#EF6861" rx="1"/>
            <rect width="28" height="41" x="50" y="12" fill="#FFF" rx="4"/>
        </g>
        <g transform="translate(53 15)">
            <g fill-rule="nonzero">
                <path fill="#414D5E" d="M19.613 0H2.972C1.333 0 0 1.324 0 2.952v31.096C0 35.676 1.333 37 2.972 37h16.64c1.64 0 2.972-1.324 2.972-2.952V2.952C22.584 1.324 21.251 0 19.613 0zm1.783 28.734H16.61a.592.592 0 0 0-.594.59c0 .327.266.59.594.59h4.785v4.134c0 .977-.8 1.771-1.783 1.771H2.972a1.78 1.78 0 0 1-1.783-1.771v-4.133h15.254a.592.592 0 0 0 .594-.59.592.592 0 0 0-.594-.591H1.189V8.266h20.207v20.468zm0-21.649H1.189V2.952c0-.977.8-1.771 1.783-1.771h16.64a1.78 1.78 0 0 1 1.784 1.771v4.133z"/>
                <path fill="#303A49" d="M13.358 3.364H8.745c-.318 0-.576.215-.576.48 0 .266.258.48.576.48h4.613c.319 0 .577-.214.577-.48 0-.265-.258-.48-.577-.48z"/>
            </g>
            <rect width="4.97" height="4.97" x="4.97" y="12.149" fill="#EF6861" rx="1"/>
            <rect width="4.97" height="4.97" x="12.701" y="12.149" fill="#4C6ECB" rx="1"/>
            <rect width="4.97" height="4.97" x="4.97" y="19.881" fill="#4C6ECB" rx="1"/>
            <rect width="4.97" height="4.97" x="12.701" y="19.881" fill="#EF6861" rx="1"/>
            <path fill="#414D5E" d="M21.864 29.82H1.104v4.52c0 1.068.822 1.937 1.832 1.937h17.096c1.01 0 1.832-.869 1.832-1.937v-4.52z"/>
            <path fill="#FFF" fill-rule="nonzero" d="M11.292 31.234c-.927 0-1.682.754-1.682 1.682 0 .927.755 1.681 1.682 1.681.928 0 1.682-.754 1.682-1.681 0-.928-.754-1.682-1.682-1.682z"/>
        </g>
    </g>
</svg>
