<svg id="Layer_1" data-name="Layer 1" xmlns="http://www.w3.org/2000/svg" viewBox="0 0 60.29 55.22"><title>Untitled-1-01</title><path d="M61.31-44.61,51.85-61a11.22,11.22,0,0,0-9.72-5.61H23.21A11.22,11.22,0,0,0,13.49-61L4-44.61A11.22,11.22,0,0,0,4-33.39L13.49-17a11.22,11.22,0,0,0,9.72,5.61H42.13A11.22,11.22,0,0,0,51.85-17l9.46-16.39A11.22,11.22,0,0,0,61.31-44.61Zm-35.52,15H21.67V-46.29h4.16ZM25.6-50.14a2.74,2.74,0,0,1-1.92.71,2.55,2.55,0,0,1-1.89-.74,2.43,2.43,0,0,1-.06-3.44l.06-.06a2.56,2.56,0,0,1,1.88-.75,2.75,2.75,0,0,1,1.92.71,2.43,2.43,0,0,1,.14,3.43l-.14.14ZM45.74-29.66H41.58v-8.42a11.94,11.94,0,0,0-.07-1.54,5.56,5.56,0,0,0-.36-1.59,3,3,0,0,0-.92-1.25,2.63,2.63,0,0,0-1.7-.5,4,4,0,0,0-1.75.35,3.37,3.37,0,0,0-1.18.94,3.72,3.72,0,0,0-.68,1.35,6,6,0,0,0-.21,1.59v9.07H30.57V-46.29h4v2.67h.07a5.83,5.83,0,0,1,1.8-2.16,5.33,5.33,0,0,1,3.28-.92,6.51,6.51,0,0,1,2.82.55,5.34,5.34,0,0,1,1.89,1.45,5.53,5.53,0,0,1,1,2.08,9.6,9.6,0,0,1,.31,2.46Z" transform="translate(-2.52 66.61)" style="fill:#fff"/></svg>