<?xml version="1.0" encoding="utf-8"?>
<!-- Generator: Adobe Illustrator 22.0.0, SVG Export Plug-In . SVG Version: 6.00 Build 0)  -->
<svg version="1.1" id="Innoapps_Logo" xmlns="http://www.w3.org/2000/svg" xmlns:xlink="http://www.w3.org/1999/xlink" x="0px"
	 y="0px" viewBox="0 0 661.2 152.5" style="enable-background:new 0 0 661.2 152.5;" xml:space="preserve">
<style type="text/css">
	.st0{fill:#234CC0;}
	.st1{fill:#F85149;}
</style>
<g id="logo">
	<g id="components">
		<path id="n_1_" class="st0" d="M82.6,29.4c-7.6,0-14.7,2.2-20.7,5.9v-4.8H34.5V122h8.6v0h18.8v0h0V68.9h0
			c0.5-8.6,7.7-15.4,16.4-15.4c8.7,0,15.9,6.8,16.4,15.4h0V122h27.4V68.9C122.1,47.2,104.4,29.4,82.6,29.4z"/>
		<path id="n" class="st0" d="M177.3,29.4c-7.6,0-14.7,2.2-20.7,5.9v-4.8h-27.4V122h8.6v0h18.8v0h0V68.9h0
			c0.5-8.6,7.7-15.4,16.4-15.4c8.7,0,15.9,6.8,16.4,15.4h0V122h27.4V68.9C216.8,47.2,199.1,29.4,177.3,29.4z"/>
		<rect id="dot" class="st0" width="27.4" height="20.8"/>
		<rect id="i" y="30.5" class="st0" width="27.4" height="91.5"/>
		<path id="s" class="st0" d="M631.2,65.2c-6.8-2-13.1-4.6-13.1-8.5c0-2.3,1.9-5.7,7.3-5.7c7.6,0,7.9,4.6,8,6.5h25.2
			c-2.2-22.5-21.6-27-32.9-27c-17.7,0-33.2,11.3-33.2,29c0,11.6,9.3,18.8,20.4,22.4c16.4,6.3,22.7,7.1,22.7,13c0,4.2-4.6,6.6-9,6.6
			c-1.1,0-8.6,0-9.7-7.9h-25.5c2.3,22.5,21.9,28.4,34.9,28.4c19,0,34.9-11.1,34.9-29.9C661.2,73.6,645.7,69.2,631.2,65.2z"/>
		<path id="infinity" class="st1" d="M335.9,30.4c-14.5,0-25.5,5.5-33.1,13.4c-7.6-8-18.5-13.4-33.1-13.4
			c-30.9,0-45.8,24.7-45.8,45.6v0.2c0,21.1,14.9,45.8,45.8,45.8c14.5,0,25.5-5.5,33.1-13.4c7.6,8,18.5,13.4,33.1,13.4
			c7.7,0,14.3-1.5,20.1-4.1v4.1h25.7V75.9h0C381.6,54.9,366.7,30.4,335.9,30.4z M269.8,94.4c-9.8,0-18.2-7.6-18.2-18v-0.1
			c0-10.5,8.3-18.1,18.2-18.1c9.8,0,18.2,7.6,18.2,18.1S279.6,94.4,269.8,94.4z M335.9,94.4c-9.8,0-18.2-7.7-18.2-18v-0.1
			c0-10.5,8.3-18.2,18.2-18.2c9.8,0,18.2,7.7,18.2,18.2S345.8,94.4,335.9,94.4z"/>
		<path id="p_1_" class="st0" d="M437.2,30.4c-7.6,0-14.7,1.8-21,5.1v-5.1h-27.4v122h27.4v-35.5c6.3,3.2,13.4,5.1,21,5.1
			c25.3,0,45.8-20.5,45.8-45.8C483,50.9,462.5,30.4,437.2,30.4z M437.2,94.4c-10,0-18.2-8.1-18.2-18.2s8.1-18.2,18.2-18.2
			s18.2,8.1,18.2,18.2S447.3,94.4,437.2,94.4z"/>
		<path id="p" class="st0" d="M538.5,30.4c-7.6,0-14.7,1.8-21,5.1v-5.1h-27.4v122h27.4v-35.5c6.3,3.2,13.4,5.1,21,5.1
			c25.3,0,45.8-20.5,45.8-45.8C584.3,50.9,563.8,30.4,538.5,30.4z M538.5,94.4c-10,0-18.2-8.1-18.2-18.2s8.1-18.2,18.2-18.2
			s18.2,8.1,18.2,18.2S548.5,94.4,538.5,94.4z"/>
	</g>
</g>
</svg>
