<svg xmlns="http://www.w3.org/2000/svg" width="41" height="67" viewBox="0 0 41 67">
    <g fill="none" fill-rule="evenodd">
        <g fill-rule="nonzero">
            <path fill="#414D5E" d="M35.515 0H5.381C2.414 0 0 2.398 0 5.346v56.308C0 64.602 2.414 67 5.381 67h30.134c2.967 0 5.381-2.398 5.381-5.346V5.346C40.896 2.398 38.482 0 35.515 0zm3.229 52.032H30.08c-.594 0-1.076.479-1.076 1.07 0 .59.482 1.068 1.076 1.068h8.664v7.484c0 1.769-1.449 3.208-3.229 3.208H5.381c-1.78 0-3.229-1.44-3.229-3.208V54.17h27.623c.595 0 1.076-.478 1.076-1.069 0-.59-.481-1.07-1.076-1.07H2.152V14.969h36.592v37.064zm0-39.202H2.152V5.346c0-1.769 1.449-3.208 3.23-3.208h30.133c1.78 0 3.229 1.44 3.229 3.208v7.484z"/>
            <path fill="#303A49" d="M24.19 6.09h-8.354c-.576 0-1.044.39-1.044.871 0 .48.468.87 1.044.87h8.354c.576 0 1.044-.39 1.044-.87s-.468-.87-1.044-.87z"/>
        </g>
        <rect width="9" height="9" x="9" y="22" fill="#EF6861" rx="1"/>
        <rect width="9" height="9" x="23" y="22" fill="#4C6ECB" rx="1"/>
        <rect width="9" height="9" x="9" y="36" fill="#4C6ECB" rx="1"/>
        <rect width="9" height="9" x="23" y="36" fill="#EF6861" rx="1"/>
        <path fill="#414D5E" d="M39.591 54H2v8.184c0 1.934 1.488 3.507 3.317 3.507h30.957c1.83 0 3.317-1.573 3.317-3.507V54z"/>
        <path fill="#FFF" fill-rule="nonzero" d="M20.448 56.558a3.049 3.049 0 0 0-3.045 3.046 3.049 3.049 0 0 0 3.045 3.045 3.049 3.049 0 0 0 3.046-3.045 3.049 3.049 0 0 0-3.046-3.046z"/>
    </g>
</svg>
