<svg xmlns="http://www.w3.org/2000/svg" width="66" height="55" viewBox="0 0 66 55">
    <g fill="none" fill-rule="evenodd">
        <path fill="#303A49" d="M52.414 13.37V0H13v50.417h4.583V55h39.415V17.953l-4.584-4.583zM44.166 7.71l9.704 9.705h-9.704V7.71zm-29.33 40.87V1.836h35.748v9.703l-6.956-6.956H17.583v43.998h-2.747zm4.583 4.583V6.42h22.917v12.832h12.832v33.913H19.419z"/>
        <path fill="#FFF" d="M.227 38.981L25.47 9.931l9.132 8.822-24.564 28.6z"/>
        <path fill="#4C6ECB" fill-rule="nonzero" d="M26.54 11.915L2.86 39.254l6.412 5.122 23.06-26.936-5.792-5.525zM5.516 39.01l21.297-24.586 3.084 3.016-.438.511-1.332-1.224-1.25 1.361 1.38 1.269-.692.807-1.328-1.222-1.251 1.362 1.377 1.265-.69.807-1.327-1.218-1.251 1.36 1.375 1.264-.692.806-1.323-1.216-1.25 1.362 1.37 1.26-.69.806-1.32-1.213-1.25 1.361 1.368 1.257-.69.807-1.319-1.21-1.25 1.361 1.364 1.254-.69.807-1.314-1.208-1.25 1.362 1.36 1.251-.69.807-1.31-1.205-1.252 1.362 1.36 1.247-.691.808-1.308-1.203-1.25 1.362 1.354 1.245-.69.807-1.305-1.198-1.25 1.36 1.353 1.244-.69.807-1.303-1.196-1.25 1.36 1.35 1.24-.292.34-3.514-2.806z"/>
        <g fill="#EF6861">
            <path d="M48.666 42.15l-3.83-3.214 16.39-19.534a2.5 2.5 0 1 1 3.83 3.214L48.667 42.15zM42.188 45.853l2.005-6.15 3.83 3.213z"/>
        </g>
    </g>
</svg>
