<svg xmlns="http://www.w3.org/2000/svg" width="60" height="60" viewBox="0 0 60 60">
    <g fill="none" fill-rule="nonzero">
        <circle cx="30" cy="30" r="30" fill="#242B2E"/>
        <circle cx="30" cy="30" r="27" fill="#FFF"/>
        <path fill="#EF6861" d="M39.36 22.725a2.182 2.182 0 1 0-3.085-3.086L28 27.914 31.086 31l8.275-8.275zM28.019 29L15.41 41.608a1.401 1.401 0 0 0 1.982 1.982L30 30.98 28.019 29z"/>
        <path fill="#EF6861" d="M19.752 16.644a2.198 2.198 0 1 0-3.108 3.108L27.892 31 31 27.892 19.752 16.644z"/>
        <path fill="#4C6ECB" d="M29.5 33c-1.93 0-3.5-1.57-3.5-3.5s1.57-3.5 3.5-3.5 3.5 1.57 3.5 3.5-1.57 3.5-3.5 3.5z"/>
        <g fill="#4C6ECB">
            <path d="M13.635 31.41h-2.116a1.41 1.41 0 0 1 0-2.82h2.116a1.41 1.41 0 0 1 0 2.82zM30 15.046a1.41 1.41 0 0 1-1.41-1.411v-2.116a1.41 1.41 0 0 1 2.82 0v2.116a1.41 1.41 0 0 1-1.41 1.41zM48.481 31.41h-2.116a1.41 1.41 0 0 1 0-2.82h2.116a1.41 1.41 0 0 1 0 2.82zM30 49.892a1.41 1.41 0 0 1-1.41-1.41v-2.117a1.41 1.41 0 0 1 2.82 0v2.116c0 .78-.63 1.411-1.41 1.411z"/>
        </g>
    </g>
</svg>
