<?xml version="1.0" encoding="utf-8"?>
<!-- Svg Vector Icons : http://www.onlinewebfonts.com/icon -->
<!DOCTYPE svg PUBLIC "-//W3C//DTD SVG 1.1//EN" "http://www.w3.org/Graphics/SVG/1.1/DTD/svg11.dtd">
<svg version="1.1" xmlns="http://www.w3.org/2000/svg" xmlns:xlink="http://www.w3.org/1999/xlink" x="0px" y="0px" viewBox="0 0 1000 1000" enable-background="new 0 0 1000 1000" xml:space="preserve">
<metadata> Svg Vector Icons : http://www.onlinewebfonts.com/icon </metadata>
<g><g transform="translate(0.000000,511.000000) scale(0.100000,-0.100000)"><path d="M9317.6,4987.2c-395.6-36.1-554.3-58.2-817.3-108.4c-486-94.4-1094.5-289.2-1431.8-459.9c-998.1-502.1-1933.9-1237.1-2695-2112.6c-122.5-140.6-228.9-257-235-257c-6,0-84.4,24.1-172.7,52.2c-321.3,102.4-737,86.3-1126.6-42.2C1987.7,1776.1,1160.3,1037.1,531.8,0.9C377.1-252.1,100-818.5,100-878.7c0-62.2,104.4-164.7,166.7-164.7c30.1,0,158.7,80.3,335.4,208.9c807.3,586.4,1411.8,809.3,1757.2,646.6c90.4-42.2,293.2-226.9,291.2-267.1c-2-8-14.1-38.1-30.1-66.3c-16.1-28.1-28.1-78.3-30.1-112.5c0-54.2,88.4-148.6,793.2-853.5c435.8-435.8,815.3-799.3,841.4-809.3c36.2-14.1,74.3-10,136.6,14l84.3,34.1l72.3-56.2c38.2-32.1,98.4-94.4,134.6-140.6c255-333.4,22.1-1028.2-646.6-1931.9c-124.5-166.7-138.6-194.8-132.5-267.1c4-54.2,94.4-134.6,152.6-134.6c116.5,0,801.3,361.5,1204.9,638.6c578.4,393.6,1122.6,939.8,1413.8,1415.8c375.5,614.5,504,1235,361.5,1743.1c-24.1,82.3-44.2,166.7-44.2,188.8c-4,30.1,60.2,96.4,216.9,230.9C7805.5-27.2,8341.6,569.2,8773.4,1205.8c417.7,616.5,650.6,1090.4,837.4,1702.9c174.7,572.3,289.2,1301.3,289.2,1829.5c0,142.6-4,162.7-52.2,210.9c-52.2,50.2-62.3,52.2-257.1,48.2C9480.3,4997.3,9355.8,4991.2,9317.6,4987.2z M9558.6,4605.7c0-106.4-40.2-518.1-70.3-714.9c-52.2-343.4-190.8-905.7-291.2-1166.8l-22.1-58.2L8381.8,3461c-435.8,437.8-793.2,801.3-791.2,811.3c2,22.1,287.2,116.5,598.4,196.8c383.6,98.4,929.8,178.7,1265.2,188.8C9554.6,4659.9,9558.6,4657.9,9558.6,4605.7z M8156.9,3240.1l897.7-895.6l-72.3-140.6l-70.3-140.6L7946,3025.2c-532.2,528.1-963.9,967.9-957.9,976c14.1,20.1,226.9,136.6,251,136.6C7249.2,4137.8,7662.9,3734.1,8156.9,3240.1z M7458,3059.4c421.7-415.7,885.6-873.6,1032.2-1020.2l267.1-263.1l-134.5-208.9c-714.9-1128.6-1883.7-2211-3201.1-2966.1c-239-136.6-835.4-437.8-1010.1-508.1l-116.5-48.2l-670.7,670.7c-369.5,369.5-672.7,682.8-672.7,696.8c0,48.2,277.1,626.6,441.8,923.8c805.3,1445.9,1863.6,2596.6,3112.7,3383.8c82.3,52.2,158.7,96.4,168.7,96.4S7036.3,3475.1,7458,3059.4z M3720.8,1784.2c174.7-40.2,176.7-40.2,146.6-82.3c-18.1-24.1-152.6-228.9-299.2-455.9C3277,802.1,3098.2,486.9,2909.5,91.3l-120.5-253l-80.3,66.3c-247,202.8-399.6,263.1-660.7,263.1c-154.6,0-222.9-10-361.5-56.2c-237-76.3-578.4-251-883.6-449.8c-46.2-30.1-46.2-26.1,20.1,88.3c36.1,66.3,140.6,233,230.9,371.5c576.4,881.6,1200.9,1421.8,1905.8,1646.7C3222.7,1854.4,3399.5,1856.5,3720.8,1784.2z M6694.9-1475.1c2-337.4-36.2-510.1-186.8-823.4c-168.7-351.4-349.4-596.4-666.7-903.7c-297.2-287.2-785.2-644.6-1192.9-873.6l-120.5-68.3l38.1,58.2c267.1,405.7,451.8,819.3,496,1096.5c40.2,263.1-40.2,528.2-230.9,761.1l-92.4,108.4l347.4,172.7c391.6,194.8,984,546.2,1323.4,783.2l226.9,158.7l28.1-94.4C6680.9-1157.9,6692.9-1300.4,6694.9-1475.1z"/><path d="M6353.5,2252.1c-186.8-48.2-391.6-210.9-469.9-375.5c-200.8-413.7,20.1-889.6,465.9-1004.1c323.3-82.3,668.7,88.4,811.3,401.6c80.3,174.7,80.3,391.6,0,568.3c-68.3,148.6-226.9,309.3-367.5,369.5C6688.9,2258.1,6455.9,2278.2,6353.5,2252.1z M6648.7,1926.7c86.4-30.1,194.8-130.5,230.9-212.9c64.3-148.6,10-357.5-114.5-453.8c-265.1-200.8-638.6-24.1-640.6,303.2C6124.6,1830.3,6387.7,2013.1,6648.7,1926.7z"/><path d="M2290.9-987.2c-72.3-114.5-403.6-745-403.6-767.1c0-14.1,285.2-307.3,632.6-652.7l630.6-628.6l116.5,66.3c425.7,243,678.8,395.6,676.8,409.7c-4,18.1-1598.5,1616.6-1614.6,1616.6C2323.1-943,2305-963.1,2290.9-987.2z M2951.6-1995.3c269.1-271.1,486-496,482-500c-6-4-58.2-36.1-118.5-72.3l-108.4-66.3l-467.9,467.9l-467.9,465.9l60.2,118.5c50.2,98.4,64.3,114.5,94.4,98.4C2443.6-1493.2,2680.5-1724.2,2951.6-1995.3z"/><path d="M1405.3-2720.2l-369.5-371.5l78.3-80.3l78.3-80.3l367.5,365.5c202.8,202.8,367.5,377.5,367.5,389.6c0,22.1-116.5,148.6-138.6,148.6C1782.9-2348.7,1610.2-2515.4,1405.3-2720.2z"/><path d="M1489.7-3258.4l-606.5-608.5l76.3-74.3l74.3-74.3l612.5,612.5l610.5,612.5l-68.3,70.3c-38.2,38.2-72.3,70.3-80.3,70.3C2102.2-2649.9,1825-2923,1489.7-3258.4z"/><path d="M1951.6-3399c-245-245-445.8-455.9-445.8-467.9c0-10,30.1-48.2,66.3-84.3l66.3-64.3l453.9,457.9l455.9,455.9l-44.2,50.2C2401.4-2937.1,2433.5-2917,1951.6-3399z"/><path d="M806.9-3318.7c-36.2-36.1-64.3-74.3-64.3-86.3c0-12.1,30.1-48.2,66.3-84.3l66.3-64.3l72.3,76.3l74.3,74.3l-44.2,50.2C889.2-3250.4,875.2-3246.4,806.9-3318.7z"/><path d="M656.3-4091.8l-74.3-76.3l76.3-74.3l76.3-74.3l74.3,76.3l74.3,76.3l-76.3,74.3l-76.3,74.3L656.3-4091.8z"/><path d="M1268.8-4081.8c-36.2-36.1-64.3-74.3-64.3-86.3c0-12.1,30.1-48.2,66.3-84.3l66.3-64.3l72.3,76.3l74.3,74.3l-44.2,50.2C1347.1-4011.5,1337.1-4011.5,1268.8-4081.8z"/></g></g>
</svg>