<svg xmlns="http://www.w3.org/2000/svg" width="90" height="55" viewBox="0 0 90 55">
    <g fill="none" fill-rule="evenodd">
        <g fill="#414D5E" fill-rule="nonzero" stroke="#FFF" stroke-width=".5">
            <path d="M74.881 6.573H15.119c-.69 0-1.25.56-1.25 1.25v33.192c0 .69.56 1.25 1.25 1.25h59.762c.69 0 1.25-.56 1.25-1.25V7.823c0-.69-.56-1.25-1.25-1.25zm-1.25 33.193H16.369V9.073h57.262v30.693z"/>
            <path d="M89.127 46.189a1.25 1.25 0 0 0-1.038-.554h-6.088V5.491A4.792 4.792 0 0 0 77.213.703H12.787a4.793 4.793 0 0 0-4.788 4.788v40.145H1.911A1.25 1.25 0 0 0 .754 47.36l1.707 3.167a6.056 6.056 0 0 0 5.623 3.771h73.832a6.051 6.051 0 0 0 5.621-3.771l1.708-3.166a1.253 1.253 0 0 0-.118-1.172zM10.499 5.491a2.29 2.29 0 0 1 2.288-2.288h64.426a2.29 2.29 0 0 1 2.288 2.288v40.145H10.499V5.491z"/>
        </g>
        <rect width="8" height="8" x="24" y="27" fill="#4C6ECB" rx="1"/>
        <rect width="8" height="8" x="40" y="27" fill="#4C6ECB" rx="1"/>
        <rect width="8" height="8" x="56" y="27" fill="#4C6ECB" rx="1"/>
        <rect width="25" height="2" x="39" y="15" fill="#EF6861" rx="1"/>
        <rect width="25" height="2" x="39" y="20" fill="#EF6861" rx="1"/>
        <rect width="8" height="8" x="24" y="14" fill="#EF6861" rx="1"/>
    </g>
</svg>
